<svg width="48" height="48" viewBox="0 0 48 48" xmlns="http://www.w3.org/2000/svg">
    <!-- 
      New Zealand Blue Penguin (KororÄ) App Icon - 48x48 version
      - Using pale blue background like the original design
      - Proportionally scaled from 192x192 version
      - Clean, modern styling with subtle depth
    -->

    <!-- Background Circle - Using pale blue like original -->
    <circle cx="24" cy="24" r="24" fill="#B3E5FC" />

    <!-- Penguin Shadow -->
    <ellipse cx="25" cy="42" rx="11" ry="4" fill="#000000" fill-opacity="0.15"/>

    <!-- Feet -->
    <path d="M 17,39 A 4,3 0 0,0 21,39 L 20,43 L 18,43 Z" fill="#FF8A65"/>
    <path d="M 31,39 A 4,3 0 0,1 27,39 L 28,43 L 30,43 Z" fill="#FF8A65"/>

    <!-- Main Body - Scaled -->
    <path d="M 35,27 C 35,35 31,42 24,42 C 17,42 13,35 13,27 C 13,19 17,11 24,11 C 31,11 35,19 35,27 Z" fill="#546E7A"/>

    <!-- Flippers/Wings - Scaled -->
    <path d="M 13,27 C 13,22 10,23 10,28 C 10,33 13,32 13,27 Z" fill="#546E7A"/>
    <path d="M 35,27 C 35,22 38,23 38,28 C 38,33 35,32 35,27 Z" fill="#546E7A"/>

    <!-- White Belly - Scaled -->
    <path d="M 31,27 C 31,33 28,38 24,38 C 20,38 17,33 17,27 C 17,21 20,16 24,16 C 28,16 31,21 31,27 Z" fill="#FFFFFF"/>

    <!-- Body Shading for Depth -->
    <path d="M 35,27 C 35,35 31,42 24,42 C 26,42 29,39 31,35 C 33,30 35,25 35,27 Z" fill="#37474F" fill-opacity="0.4"/>

    <!-- Flipper Shading -->
    <path d="M 13,27 C 13,22 10,23 10,28 C 11,29 12,28 13,27 Z" fill="#37474F" fill-opacity="0.3"/>
    <path d="M 35,27 C 35,22 38,23 38,28 C 37,29 36,28 35,27 Z" fill="#37474F" fill-opacity="0.3"/>

    <!-- Beak - Scaled -->
    <path d="M 21,22 L 27,22 L 24,26 Z" fill="#263238"/>

    <!-- Eyes - Scaled -->
    <g id="left-eye">
        <circle cx="20" cy="20" r="3" fill="#FFFFFF"/>
        <circle cx="20" cy="20" r="1.75" fill="#1A237E"/>
        <circle cx="21" cy="19" r="0.6" fill="#FFFFFF"/>
        <circle cx="20" cy="20" r="3" fill="none" stroke="#37474F" stroke-width="0.4" opacity="0.3"/>
    </g>
    <g id="right-eye">
        <circle cx="28" cy="20" r="3" fill="#FFFFFF"/>
        <circle cx="28" cy="20" r="1.75" fill="#1A237E"/>
        <circle cx="27" cy="19" r="0.6" fill="#FFFFFF"/>
        <circle cx="28" cy="20" r="3" fill="none" stroke="#37474F" stroke-width="0.4" opacity="0.3"/>
    </g>

    <!-- Optional: Small accent details -->
    <!-- Chest marking - Scaled -->
    <path d="M 24,17 C 25,19 25,21 24,22 C 23,21 23,19 24,17 Z" fill="#E8EAF6" opacity="0.6"/>
    
    <!-- Subtle highlight on head - Scaled -->
    <path d="M 21,13 C 22,12 26,12 27,13 C 26,15 22,15 21,13 Z" fill="#FFFFFF" opacity="0.3"/>
</svg>