<svg width="72" height="72" viewBox="0 0 72 72" xmlns="http://www.w3.org/2000/svg">
    <!-- 
      New Zealand Blue Penguin (KororÄ) App Icon - 72x72 version
      - Using pale blue background like the original design
      - Proportionally scaled from 192x192 version
      - Clean, modern styling with subtle depth
    -->

    <!-- Background Circle - Using pale blue like original -->
    <circle cx="36" cy="36" r="36" fill="#B3E5FC" />

    <!-- Penguin Shadow -->
    <ellipse cx="37" cy="63" rx="16" ry="5" fill="#000000" fill-opacity="0.15"/>

    <!-- Feet -->
    <path d="M 25,58 A 6,4 0 0,0 31,58 L 30,64 L 26,64 Z" fill="#FF8A65"/>
    <path d="M 47,58 A 6,4 0 0,1 41,58 L 42,64 L 46,64 Z" fill="#FF8A65"/>

    <!-- Main Body - Scaled -->
    <path d="M 52,41 C 52,53 46,63 36,63 C 26,63 20,53 20,41 C 20,28 26,16 36,16 C 46,16 52,28 52,41 Z" fill="#546E7A"/>

    <!-- Flippers/Wings - Scaled -->
    <path d="M 20,41 C 20,33 15,35 15,42 C 15,49 20,48 20,41 Z" fill="#546E7A"/>
    <path d="M 52,41 C 52,33 57,35 57,42 C 57,49 52,48 52,41 Z" fill="#546E7A"/>

    <!-- White Belly - Scaled -->
    <path d="M 47,41 C 47,49 42,57 36,57 C 30,57 25,49 25,41 C 25,32 30,24 36,24 C 42,24 47,32 47,41 Z" fill="#FFFFFF"/>

    <!-- Body Shading for Depth -->
    <path d="M 52,41 C 52,53 46,63 36,63 C 39,63 44,58 47,52 C 49,45 52,38 52,41 Z" fill="#37474F" fill-opacity="0.4"/>

    <!-- Flipper Shading -->
    <path d="M 20,41 C 20,33 15,35 15,42 C 16,44 19,42 20,41 Z" fill="#37474F" fill-opacity="0.3"/>
    <path d="M 52,41 C 52,33 57,35 57,42 C 56,44 53,42 52,41 Z" fill="#37474F" fill-opacity="0.3"/>

    <!-- Beak - Scaled -->
    <path d="M 32,32 L 40,32 L 36,38 Z" fill="#263238"/>

    <!-- Eyes - Scaled -->
    <g id="left-eye">
        <circle cx="29" cy="29" r="4.5" fill="#FFFFFF"/>
        <circle cx="30" cy="30" r="2.5" fill="#1A237E"/>
        <circle cx="31" cy="28" r="1" fill="#FFFFFF"/>
        <circle cx="29" cy="29" r="4.5" fill="none" stroke="#37474F" stroke-width="0.5" opacity="0.3"/>
    </g>
    <g id="right-eye">
        <circle cx="43" cy="29" r="4.5" fill="#FFFFFF"/>
        <circle cx="42" cy="30" r="2.5" fill="#1A237E"/>
        <circle cx="41" cy="28" r="1" fill="#FFFFFF"/>
        <circle cx="43" cy="29" r="4.5" fill="none" stroke="#37474F" stroke-width="0.5" opacity="0.3"/>
    </g>

    <!-- Optional: Small accent details -->
    <!-- Chest marking - Scaled -->
    <path d="M 36,26 C 38,28 38,31 36,33 C 34,31 34,28 36,26 Z" fill="#E8EAF6" opacity="0.6"/>
    
    <!-- Subtle highlight on head - Scaled -->
    <path d="M 31,20 C 34,18 38,18 41,20 C 38,22 34,22 31,20 Z" fill="#FFFFFF" opacity="0.3"/>
</svg>