<svg width="108" height="108" viewBox="0 0 108 108" xmlns="http://www.w3.org/2000/svg">
    <!-- 
      A more detailed, cartoon-style icon of a New Zealand Blue Penguin (KororÄ).
      - Style: Friendly, cartoonish, with depth.
      - Palette: Slate blue, white, and orange accents.
      - Features: Large expressive eyes, subtle shading, and a classic penguin stance.
    -->

    <!-- Background -->
    <circle cx="54" cy="54" r="54" fill="#B3E5FC" />

    <!-- Penguin Shadow -->
    <path d="M 78,60 C 78,78 67,92 54,92 C 41,92 30,78 30,60 C 30,42 41,28 54,28 C 67,28 78,42 78,60 Z" fill="#000000" fill-opacity="0.15" transform="translate(2, 4)"/>

    <!-- Feet -->
    <path d="M 42,87 A 10,5 0 0,0 52,87 L 50,94 Z" fill="#FFA726"/>
    <path d="M 66,87 A 10,5 0 0,1 56,87 L 58,94 Z" fill="#FFA726"/>

    <!-- Main Body -->
    <path d="M 76,60 C 76,78 66,90 54,90 C 42,90 32,78 32,60 C 32,42 42,26 54,26 C 66,26 76,42 76,60 Z" fill="#607D8B"/>

    <!-- Flippers -->
    <path d="M 32,60 C 32,50 26,52 26,62 C 26,72 32,70 32,60 Z" fill="#607D8B"/>
    <path d="M 76,60 C 76,50 82,52 82,62 C 82,72 76,70 76,60 Z" fill="#607D8B"/>

    <!-- White Belly -->
    <path d="M 68,60 C 68,72 62,84 54,84 C 46,84 40,72 40,60 C 40,48 46,36 54,36 C 62,36 68,48 68,60 Z" fill="#FFFFFF"/>

    <!-- Body Shading -->
    <path d="M 76,60 C 76,78 66,90 54,90 C 58,90 64,82 68,72 C 72,62 74,50 76,60 Z" fill="#455A64" fill-opacity="0.5"/>

    <!-- Beak -->
    <path d="M 50,52 L 58,52 L 54,58 Z" fill="#212121"/>

    <!-- Eyes -->
    <g id="left-eye">
        <circle cx="46" cy="48" r="6" fill="#FFFFFF"/>
        <circle cx="47" cy="49" r="3" fill="#212121"/>
        <circle cx="48" cy="47" r="1" fill="#FFFFFF"/>
    </g>
    <g id="right-eye">
        <circle cx="62" cy="48" r="6" fill="#FFFFFF"/>
        <circle cx="61" cy="49" r="3" fill="#212121"/>
        <circle cx="60" cy="47" r="1" fill="#FFFFFF"/>
    </g>
</svg>