<svg width="192" height="192" viewBox="0 0 192 192" xmlns="http://www.w3.org/2000/svg">
    <!-- 
      New Zealand Blue Penguin (KororÄ) App Icon - Bigger penguin version
      - Using pale blue background like the original design
      - Larger penguin for better visibility
      - Clean, modern styling with subtle depth
    -->

    <!-- Background Circle - Using pale blue like original -->
    <circle cx="96" cy="96" r="96" fill="#B3E5FC" />

    <!-- Penguin Shadow -->
    <ellipse cx="98" cy="168" rx="42" ry="14" fill="#000000" fill-opacity="0.15"/>

    <!-- Feet -->
    <path d="M 66,155 A 16,10 0 0,0 82,155 L 80,170 L 68,170 Z" fill="#FF8A65"/>
    <path d="M 126,155 A 16,10 0 0,1 110,155 L 112,170 L 124,170 Z" fill="#FF8A65"/>

    <!-- Main Body - Larger -->
    <path d="M 140,108 C 140,142 122,168 96,168 C 70,168 52,142 52,108 C 52,74 70,42 96,42 C 122,42 140,74 140,108 Z" fill="#546E7A"/>

    <!-- Flippers/Wings - Larger -->
    <path d="M 52,108 C 52,88 40,92 40,112 C 40,132 52,128 52,108 Z" fill="#546E7A"/>
    <path d="M 140,108 C 140,88 152,92 152,112 C 152,132 140,128 140,108 Z" fill="#546E7A"/>

    <!-- White Belly - Larger -->
    <path d="M 124,108 C 124,132 112,152 96,152 C 80,152 68,132 68,108 C 68,84 80,64 96,64 C 112,64 124,84 124,108 Z" fill="#FFFFFF"/>

    <!-- Body Shading for Depth -->
    <path d="M 140,108 C 140,142 122,168 96,168 C 104,168 116,156 124,138 C 132,120 138,102 140,108 Z" fill="#37474F" fill-opacity="0.4"/>

    <!-- Flipper Shading -->
    <path d="M 52,108 C 52,88 40,92 40,112 C 44,116 50,112 52,108 Z" fill="#37474F" fill-opacity="0.3"/>
    <path d="M 140,108 C 140,88 152,92 152,112 C 148,116 142,112 140,108 Z" fill="#37474F" fill-opacity="0.3"/>

    <!-- Beak - Larger -->
    <path d="M 84,86 L 108,86 L 96,102 Z" fill="#263238"/>

    <!-- Eyes - Larger -->
    <g id="left-eye">
        <circle cx="78" cy="78" r="12" fill="#FFFFFF"/>
        <circle cx="80" cy="80" r="7" fill="#1A237E"/>
        <circle cx="82" cy="76" r="2.5" fill="#FFFFFF"/>
        <circle cx="78" cy="78" r="12" fill="none" stroke="#37474F" stroke-width="1" opacity="0.3"/>
    </g>
    <g id="right-eye">
        <circle cx="114" cy="78" r="12" fill="#FFFFFF"/>
        <circle cx="112" cy="80" r="7" fill="#1A237E"/>
        <circle cx="110" cy="76" r="2.5" fill="#FFFFFF"/>
        <circle cx="114" cy="78" r="12" fill="none" stroke="#37474F" stroke-width="1" opacity="0.3"/>
    </g>

    <!-- Optional: Small accent details -->
    <!-- Chest marking - Larger -->
    <path d="M 96,68 C 102,74 102,82 96,88 C 90,82 90,74 96,68 Z" fill="#E8EAF6" opacity="0.6"/>
    
    <!-- Subtle highlight on head - Larger -->
    <path d="M 82,52 C 90,48 102,48 110,52 C 102,58 90,58 82,52 Z" fill="#FFFFFF" opacity="0.3"/>
</svg>