<svg width="192" height="192" viewBox="0 0 192 192" xmlns="http://www.w3.org/2000/svg">
    <!-- 
      New Zealand Blue Penguin (KororÄ) App Icon - Centered higher and bigger penguin
      - Using pale blue background like the original design
      - Penguin scaled larger and positioned higher for better balance
      - Clean, modern styling with subtle depth
    -->

    <!-- Background Circle - Using pale blue like original -->
    <circle cx="96" cy="96" r="96" fill="#B3E5FC" />

    <!-- Penguin Shadow - centered and positioned for higher penguin -->
    <ellipse cx="96" cy="170" rx="50" ry="16" fill="#000000" fill-opacity="0.15"/>

    <!-- Feet - larger and positioned for higher penguin -->
    <path d="M 60,160 A 18,12 0 0,0 78,160 L 76,177 L 62,177 Z" fill="#FF8A65"/>
    <path d="M 132,160 A 18,12 0 0,1 114,160 L 116,177 L 130,177 Z" fill="#FF8A65"/>

    <!-- Main Body - Much larger and positioned higher -->
    <path d="M 150,90 C 150,135 127,170 96,170 C 65,170 42,135 42,90 C 42,45 65,15 96,15 C 127,15 150,45 150,90 Z" fill="#546E7A"/>

    <!-- Flippers/Wings - larger and adjusted for higher body -->
    <path d="M 42,90 C 42,65 25,72 25,100 C 25,128 42,115 42,90 Z" fill="#546E7A"/>
    <path d="M 150,90 C 150,65 167,72 167,100 C 167,128 150,115 150,90 Z" fill="#546E7A"/>

    <!-- White Belly - Much larger and positioned higher -->
    <path d="M 130,90 C 130,125 115,155 96,155 C 77,155 62,125 62,90 C 62,55 77,30 96,30 C 115,30 130,55 130,90 Z" fill="#FFFFFF"/>

    <!-- Body Shading for Depth - adjusted for higher position -->
    <path d="M 150,90 C 150,135 127,170 96,170 C 108,170 125,155 135,130 C 145,105 150,85 150,90 Z" fill="#37474F" fill-opacity="0.4"/>

    <!-- Flipper Shading - adjusted -->
    <path d="M 42,90 C 42,65 25,72 25,100 C 30,105 40,100 42,90 Z" fill="#37474F" fill-opacity="0.3"/>
    <path d="M 150,90 C 150,65 167,72 167,100 C 162,105 152,100 150,90 Z" fill="#37474F" fill-opacity="0.3"/>

    <!-- Beak - larger and positioned higher -->
    <path d="M 78,65 L 114,65 L 96,85 Z" fill="#263238"/>

    <!-- Eyes - larger and positioned higher -->
    <g id="left-eye">
        <circle cx="72" cy="55" r="15" fill="#FFFFFF"/>
        <circle cx="75" cy="58" r="9" fill="#1A237E"/>
        <circle cx="78" cy="53" r="3" fill="#FFFFFF"/>
        <circle cx="72" cy="55" r="15" fill="none" stroke="#37474F" stroke-width="1" opacity="0.3"/>
    </g>
    <g id="right-eye">
        <circle cx="120" cy="55" r="15" fill="#FFFFFF"/>
        <circle cx="117" cy="58" r="9" fill="#1A237E"/>
        <circle cx="114" cy="53" r="3" fill="#FFFFFF"/>
        <circle cx="120" cy="55" r="15" fill="none" stroke="#37474F" stroke-width="1" opacity="0.3"/>
    </g>

    <!-- Chest marking - larger and positioned higher -->
    <path d="M 96,40 C 105,47 105,57 96,65 C 87,57 87,47 96,40 Z" fill="#E8EAF6" opacity="0.6"/>
    
    <!-- Subtle highlight on head - larger and positioned higher -->
    <path d="M 75,23 C 85,17 107,17 117,23 C 107,31 85,31 75,23 Z" fill="#FFFFFF" opacity="0.3"/>
</svg>